<svg xmlns="http://www.w3.org/2000/svg" viewBox="0 0 24 24" width="24" height="24" fill="none" stroke="#f8fafc" stroke-width="1.6" stroke-linecap="round" stroke-linejoin="round">
  <circle cx="12" cy="12" r="3.2"/>
  <path d="M12 3.8l1.2.6a1.5 1.5 0 0 0 1.6-.1l1.2-.7 1.2 2-1.2.7a1.5 1.5 0 0 0-.6 1.8l.6 1.3-.6 1.4a1.5 1.5 0 0 0 .6 1.8l1.2.7-1.2 2-1.3-.6a1.5 1.5 0 0 0-1.8.6l-.7 1.2h-2.3l-.7-1.2a1.5 1.5 0 0 0-1.8-.6l-1.3.6-1.2-2 1.2-.7a1.5 1.5 0 0 0 .6-1.8l-.6-1.4.6-1.3a1.5 1.5 0 0 0-.6-1.8l-1.2-.7 1.2-2 1.2.7a1.5 1.5 0 0 0 1.6.1l1.2-.6z"/>
</svg>
