<svg width="128" height="128" viewBox="0 0 128 128" fill="none" xmlns="http://www.w3.org/2000/svg">
  <defs>
    <linearGradient id="aurora" x1="14" y1="118" x2="114" y2="12" gradientUnits="userSpaceOnUse">
      <stop stop-color="#0EA5E9"/>
      <stop offset="0.45" stop-color="#22D3EE"/>
      <stop offset="1" stop-color="#7C3AED"/>
    </linearGradient>
    <linearGradient id="glow" x1="22" y1="106" x2="104" y2="28" gradientUnits="userSpaceOnUse">
      <stop stop-color="#0B1120" stop-opacity="0.85"/>
      <stop offset="1" stop-color="#0F172A" stop-opacity="0.95"/>
    </linearGradient>
    <filter id="soft-shadow" x="6" y="10" width="116" height="108" filterUnits="userSpaceOnUse" color-interpolation-filters="sRGB">
      <feDropShadow dx="0" dy="8" stdDeviation="8" flood-color="#0EA5E9" flood-opacity="0.22"/>
    </filter>
  </defs>
  <rect x="16" y="18" width="96" height="92" rx="24" fill="url(#glow)" stroke="#1E293B" stroke-opacity="0.35" stroke-width="2"/>
  <g filter="url(#soft-shadow)">
    <path d="M28 90C36.5 78 43 70 52 70C60 70 63 86 72 86C81 86 86 62 94 62C101.5 62 107 76 112 90" stroke="url(#aurora)" stroke-width="10" stroke-linecap="round" stroke-linejoin="round"/>
  </g>
  <path d="M36 52C42 44 50 40 60 40C68 40 74 44 80 50" stroke="#22D3EE" stroke-width="6" stroke-linecap="round"/>
  <path d="M70 32C76 28 84 26 92 26" stroke="#7C3AED" stroke-width="5" stroke-linecap="round"/>
  <circle cx="36" cy="36" r="6" fill="#22D3EE" fill-opacity="0.85"/>
  <circle cx="94" cy="30" r="5" fill="#7C3AED" fill-opacity="0.85"/>
</svg>
