<svg xmlns="http://www.w3.org/2000/svg" viewBox="0 0 200 200" role="img" aria-label="Nordlys logo">
  <defs>
    <linearGradient id="night" x1="0" x2="1" y1="0" y2="1">
      <stop offset="0%" stop-color="#0b1120" />
      <stop offset="100%" stop-color="#111827" />
    </linearGradient>
    <linearGradient id="glow" x1="0" x2="1" y1="0" y2="1">
      <stop offset="0%" stop-color="#22d3ee" />
      <stop offset="50%" stop-color="#818cf8" />
      <stop offset="100%" stop-color="#c084fc" />
    </linearGradient>
    <radialGradient id="pulse" cx="45%" cy="38%" r="60%">
      <stop offset="0%" stop-color="#a5b4fc" stop-opacity="0.85" />
      <stop offset="60%" stop-color="#4f46e5" stop-opacity="0.35" />
      <stop offset="100%" stop-color="#0b1120" stop-opacity="0" />
    </radialGradient>
  </defs>
  <rect width="200" height="200" rx="28" fill="url(#night)" />
  <rect x="14" y="14" width="172" height="172" rx="24" fill="#0f172a" />
  <rect x="20" y="20" width="160" height="160" rx="20" fill="url(#night)" />
  <circle cx="78" cy="64" r="44" fill="url(#pulse)" />
  <path
    d="M42 126c18-20 34-28 46-26 17 3 25 20 42 22 11 1 22-5 28-10"
    fill="none"
    stroke="url(#glow)"
    stroke-width="10"
    stroke-linecap="round"
    stroke-linejoin="round"
  />
  <path
    d="M40 108c12-14 24-20 34-18 13 2 22 12 36 14 14 2 28-4 42-16"
    fill="none"
    stroke="url(#glow)"
    stroke-width="8"
    stroke-linecap="round"
    stroke-linejoin="round"
    opacity="0.9"
  />
  <path
    d="M38 90c10-10 20-14 30-12 12 2 22 8 34 10 14 2 30-2 44-12"
    fill="none"
    stroke="url(#glow)"
    stroke-width="6"
    stroke-linecap="round"
    stroke-linejoin="round"
    opacity="0.75"
  />
  <path
    d="M52 150c8-10 16-16 24-16 12 0 22 10 34 12 14 2 28-6 40-22"
    fill="none"
    stroke="#22d3ee"
    stroke-width="6"
    stroke-linecap="round"
    stroke-linejoin="round"
    opacity="0.9"
  />
  <circle cx="68" cy="74" r="6" fill="#e0f2fe" />
  <circle cx="120" cy="50" r="8" fill="#c7d2fe" />
  <circle cx="138" cy="86" r="5" fill="#bae6fd" />
</svg>
